<svg xmlns="http://www.w3.org/2000/svg" viewBox="0 0 66 66"><path d="M62.552 55.434a.5.5 0 0 0-.215-.554c-.4-.253-40.21-25.401-52.544-31.416a.501.501 0 0 0-.719.429c-.45 11.111-.59 22.164-1.037 33.248a.499.499 0 0 0 .499.52h.018l53.534-1.858a.498.498 0 0 0 .464-.369zM9.24 51.499c1.359-.36 2.854-.537 3.874.431 1.258 1.193.782 3.159.353 4.561l-4.41.153c.068-1.714.127-3.431.183-5.145zm4.756 4.973c.323-1.074 1.005-3.441-.537-4.906-1.141-1.082-2.747-.96-4.202-.589.3-9.364.442-17.518.786-26.274 11.608 5.838 43.385 25.751 50.387 30.156l-46.434 1.613zM7.049 22.197a.489.489 0 0 0-.164-.423c.018-.238.053-.475.059-.714.014-.596-.014-1.227-.312-1.8-.375-.721-1.127-1.131-1.829-.999-.714.135-1.234.741-1.546 1.804-.13.442-.229.89-.315 1.341a.487.487 0 0 0-.124.261.476.476 0 0 0 .035.238A13.705 13.705 0 0 0 2.694 24a.5.5 0 0 0 .5.499h.001a.5.5 0 0 0 .499-.501c-.001-.57.04-1.139.114-1.703l2.011.252a13.464 13.464 0 0 1-.315 1.595.5.5 0 1 0 .967.254c.16-.607.27-1.225.35-1.848a.492.492 0 0 0 .228-.351zm-3.074-.889c.069-.323.147-.644.24-.962.136-.462.381-1.029.773-1.104.289-.057.611.199.756.478.194.373.211.852.199 1.315-.004.172-.032.342-.042.514l-1.926-.241zM6.611 55.185a2.218 2.218 0 0 0-1.296-1.169c-.937-.306-1.905.069-2.646 1.035a.505.505 0 0 0-.102.335l.266 4.44a.5.5 0 0 0 .359.45c.31.09.592.135.877.135.28 0 .562-.044.874-.131.729-.207 1.303-.715 1.536-1.36a1.837 1.837 0 0 0-.163-1.568c.162-.182.289-.386.375-.605.193-.489.165-1.044-.08-1.562zm-1.072 3.397c-.122.338-.454.62-.867.736-.326.091-.581.118-.863.074l-.066-1.109c.485-.009.94-.048 1.393-.192.128-.04.252-.089.369-.144.09.187.109.426.034.635zm.222-2.2a1.1 1.1 0 0 1-.3.411.498.498 0 0 0-.307.211 1.872 1.872 0 0 1-.32.134c-.35.111-.723.141-1.151.146l-.106-1.764c.337-.391.829-.75 1.428-.553.294.096.556.337.701.645.126.266.145.539.055.77zM61.949 57.79c.402-.168.905-.172 1.631-.01a.501.501 0 0 0 .217-.977c-.634-.141-1.459-.262-2.233.063-.924.387-1.542 1.393-1.469 2.393.074.999.832 1.904 1.803 2.151.184.047.372.069.56.069.807 0 1.612-.413 2.052-1.097a.5.5 0 0 0-.841-.541c-.313.484-.972.739-1.524.6a1.46 1.46 0 0 1-1.053-1.256 1.457 1.457 0 0 1 .857-1.395zM2.927 36.131c.354.1.632.338.741.636a.248.248 0 0 0 .321.148.249.249 0 0 0 .148-.32c-.165-.449-.567-.802-1.075-.945-.5-.141-1.021-.052-1.39.239-.377.298-.58.794-.544 1.326.036.525.301.981.707 1.221.25.148.521.213.794.213.646 0 1.3-.366 1.695-.867.015-.02.024-.042.039-.062.052.138.119.271.212.386a1.502 1.502 0 0 0 1.732.425.248.248 0 0 0 .128-.329.25.25 0 0 0-.33-.128 1.01 1.01 0 0 1-1.141-.28 1.01 1.01 0 0 1-.162-.893l.002-.005a.884.884 0 0 1 .134-.276.238.238 0 0 0 .031-.208c.096-.344.169-.69.232-1.019a.249.249 0 0 0-.199-.292c-.133-.036-.267.063-.293.198-.14.734-.299 1.566-.778 2.174-.42.532-1.244.887-1.842.533-.265-.155-.438-.464-.462-.824-.025-.367.108-.704.355-.899.244-.194.598-.252.945-.152zM35.754 61.151c.206-.49.027-1.104-.405-1.397a1.127 1.127 0 0 0-1.142-.053l-.459-1.845c-.034-.134-.168-.224-.303-.182a.25.25 0 0 0-.183.303l1.096 4.408a.25.25 0 0 0 .486-.122l-.098-.392c.436-.046.839-.317 1.008-.72zm-.461-.193a.733.733 0 0 1-.668.424l-.288-1.157a.613.613 0 0 1 .731-.057.678.678 0 0 1 .225.79zM38.13 37.53c.098 0 .197-.006.298-.018.586-.072 1.128-.334 1.607-.564a.25.25 0 0 0-.218-.451c-.465.225-.946.457-1.45.52-.403.051-.951-.027-1.268-.396A1.036 1.036 0 0 1 37 35.46c.21-.352.673-.549 1.069-.458a.25.25 0 1 0 .109-.488 1.528 1.528 0 0 0-1.607.688 1.533 1.533 0 0 0 .148 1.743c.324.376.837.585 1.411.585zM23.636 11.705a.499.499 0 1 0 .376-.925c-2.125-.864-4.773-.242-6.296 1.474-1.781 2.007-1.78 5.357.003 7.316 1.827 2.007 5.219 2.243 7.261.5a.5.5 0 1 0-.649-.76c-1.62 1.382-4.418 1.185-5.872-.414-1.454-1.598-1.451-4.336.006-5.979 1.25-1.41 3.424-1.919 5.171-1.212zM25.739 7.627c.091.144.25.232.42.232l2.555.011h.002a.5.5 0 0 0 .002-1l-1.825-.008c.18-.571.228-1.094.146-1.583-.161-.958-.869-1.715-1.723-1.84a1.725 1.725 0 0 0-1.451.529c-.341.362-.485.826-.396 1.272a.5.5 0 1 0 .98-.197c-.034-.169.075-.314.143-.387.155-.163.39-.261.581-.227.473.068.807.574.881 1.016.08.477-.033 1.034-.345 1.702a.5.5 0 0 0 .03.48zM36.005 16.324a.5.5 0 0 0 .024-.999l-5.694-.282c-.28-.035-.511.198-.524.474a.5.5 0 0 0 .475.524l5.694.282a.209.209 0 0 0 .025.001zM31.187 18.522h.011l5.574-.119a.5.5 0 0 0 .489-.511c-.005-.275-.211-.463-.511-.489l-5.574.119a.5.5 0 0 0 .011 1zM41.119 17.648c.732-.142 1.354-.566 1.814-.92a12.378 12.378 0 0 0 1.825-1.729c.065.653.293 1.27.678 1.77.493.64 1.293 1.064 2.14 1.138.087.008.174.012.26.012.663-.001 1.268-.224 1.724-.643a.499.499 0 1 0-.676-.736c-.307.281-.743.408-1.222.371-.572-.05-1.108-.331-1.433-.753-.608-.789-.651-2.061-.102-3.094a.499.499 0 0 0-.876-.483 11.419 11.419 0 0 1-2.926 3.355c-.396.305-.872.63-1.394.73-.391.075-.902.003-1.171-.332-.439-.547-.038-1.507.563-2.134.37-.386.949-.84 1.546-.829a.96.96 0 0 1 .704.375c.077.102.159.261.113.436-.07.268.09.541.357.61.268.074.54-.09.61-.356.115-.439.015-.898-.282-1.291a1.954 1.954 0 0 0-1.479-.773c-.756-.01-1.562.376-2.292 1.138-.889.927-1.462 2.403-.62 3.452.464.578 1.305.842 2.139.686zM53.871 17.648a.501.501 0 0 0 .563-.428c.125-.916.174-1.835.177-2.753l2.102-.207a.5.5 0 0 0 .449-.547.503.503 0 0 0-.546-.449l-2.02.199a20.944 20.944 0 0 0-.336-2.979.5.5 0 1 0-.982.188c.182.957.284 1.922.324 2.889l-1.86.183a.501.501 0 0 0 .097.996l1.773-.174a19.898 19.898 0 0 1-.168 2.52.499.499 0 0 0 .427.562zM62.451 13.051a2.015 2.015 0 0 0-1.361-1.933c-.494-.164-1.026-.088-1.484.137l-.554-3.366a.5.5 0 0 0-.986.162l1.093 6.645a.498.498 0 0 0 .124.98c.012 0 .024-.003.037-.004l.189 1.149a.5.5 0 1 0 .987-.162l-.202-1.231c.339-.111.679-.256.994-.466.708-.466 1.143-1.181 1.163-1.911zm-1.716 1.08a2.945 2.945 0 0 1-.608.294l-.345-2.096c.255-.252.658-.37.996-.26.389.127.684.546.672.955-.009.398-.284.822-.715 1.107zM45.077 6.485a1.49 1.49 0 0 0-1.332.051c-.374.203-.619.542-.671.932a.5.5 0 0 0 .429.562.493.493 0 0 0 .562-.429c.013-.094.103-.156.156-.184.136-.072.307-.086.424-.028.308.146.452.571.436.913-.022.451-.245.904-.484 1.329l-.124.218c-.245.429-.499.872-.638 1.386a.498.498 0 0 0 .483.63.5.5 0 0 0 .479-.357c.079-.267.495-.378.832-.403.24.002.478.043.715.083.291.048.582.102.912.096.711-.004 1.569-.372 1.771-1.173a.5.5 0 0 0-.97-.244c-.065.259-.461.415-.807.417a6.369 6.369 0 0 1-.743-.083 5.594 5.594 0 0 0-.87-.096c-.053.001-.107.001-.162.004.296-.526.573-1.104.604-1.759.039-.81-.364-1.559-1.002-1.865zM64.417 7.566a.51.51 0 0 0-.54.456.835.835 0 0 1-.684.722c-.142.019-.311.003-.488-.013-.085-.008-.17-.016-.255-.021.044-.184.075-.372.093-.563.064-.696-.196-1.047-.425-1.219-.296-.222-.741-.21-1.055.026-.277.21-.38.545-.261.854a.502.502 0 0 0 .746.235l-.001.011c-.03.329-.119.656-.257.961-.266.207-.442.51-.424.877a.5.5 0 0 0 .9.274c.104-.139.199-.284.283-.435a.51.51 0 0 1 .127-.025c.146-.013.29.005.434.018.217.021.462.044.724.008a1.831 1.831 0 0 0 1.54-1.628.5.5 0 0 0-.457-.538z"/></svg>